<svg width="274" height="101" viewBox="0 0 274 101" fill="none" xmlns="http://www.w3.org/2000/svg">
<g filter="url(#filter0_d_517_525)">
<path d="M20.0136 59.0865H11.8194L10.3884 63.7644H4L13.0971 38.7237H18.7188L27.884 63.7644H21.4616L20.0136 59.0865ZM13.2504 54.4257H18.5826L15.908 45.7406L13.2504 54.4257Z" fill="#656980"/>
<path d="M49.4001 55.2856C49.3206 57.0284 48.855 58.5705 48.0032 59.912C47.1514 61.242 45.9532 62.2739 44.4087 63.0077C42.8755 63.7415 41.1208 64.1084 39.1446 64.1084C35.8851 64.1084 33.3184 63.0363 31.4445 60.8923C29.5706 58.7482 28.6336 55.7213 28.6336 51.8116V50.5733C28.6336 48.1197 29.0538 45.9756 29.8943 44.1412C30.746 42.2952 31.9669 40.8735 33.5569 39.876C35.1469 38.867 36.9868 38.3625 39.0765 38.3625C42.0861 38.3625 44.5052 39.1651 46.3337 40.7703C48.1622 42.364 49.2014 44.5654 49.4512 47.3744H43.4887C43.4433 45.8495 43.0629 44.7546 42.3474 44.0896C41.6319 43.4246 40.5416 43.0921 39.0765 43.0921C37.5887 43.0921 36.4984 43.6539 35.8056 44.7775C35.1129 45.9011 34.7494 47.6955 34.7154 50.1606V51.932C34.7154 54.6034 35.0447 56.5125 35.7034 57.659C36.3735 58.8056 37.5206 59.3788 39.1446 59.3788C40.5189 59.3788 41.5694 59.0521 42.2962 58.3985C43.0231 57.745 43.4092 56.7074 43.4547 55.2856H49.4001Z" fill="#656980"/>
<path d="M71.1888 43.3844H63.7442V63.7644H57.7647V43.3844H50.4563V38.7237H71.1888V43.3844Z" fill="#656980"/>
<path d="M80.0985 63.7644H74.136V38.7237H80.0985V63.7644Z" fill="#656980"/>
<path d="M93.8803 56.9539L98.8207 38.7237H105.499L97.1512 63.7644H90.6095L82.3301 38.7237H88.957L93.8803 56.9539Z" fill="#656980"/>
<path d="M122.705 53.1531H113.301V59.1209H124.408V63.7644H107.322V38.7237H124.442V43.3844H113.301V48.6643H122.705V53.1531Z" fill="#656980"/>
<path d="M127.454 63.7472V38.7065H133.978C136.647 38.7065 138.663 39.2569 140.026 40.3575C141.4 41.4468 142.087 43.0347 142.087 45.1215C142.087 46.6349 141.707 47.8904 140.946 48.8879C140.185 49.8854 139.112 50.5217 137.726 50.7969C139.294 51.0033 140.6 51.6912 141.644 52.8607C142.689 54.0187 143.212 55.3487 143.212 56.8507C143.212 58.9833 142.525 60.6687 141.15 61.907C139.788 63.1338 137.885 63.7472 135.443 63.7472H127.454ZM128.374 51.3816V62.8185H135.546C137.647 62.8185 139.294 62.2968 140.486 61.2534C141.69 60.1986 142.292 58.7425 142.292 56.8851C142.292 55.3028 141.713 54.0015 140.554 52.9811C139.396 51.9492 137.846 51.416 135.903 51.3816H128.374ZM128.374 50.4529H134.319C136.579 50.4529 138.283 50.0172 139.43 49.1459C140.577 48.263 141.15 46.8986 141.15 45.0527C141.15 41.4984 138.828 39.6925 134.183 39.6352H128.374V50.4529Z" fill="white"/>
<path d="M166.074 53.1015C166.074 55.2684 165.688 57.1889 164.915 58.8629C164.154 60.5254 163.064 61.8152 161.644 62.7325C160.225 63.6383 158.589 64.0912 156.738 64.0912C153.944 64.0912 151.684 63.0879 149.958 61.0815C148.232 59.075 147.368 56.3691 147.368 52.9639V49.3522C147.368 47.1967 147.749 45.282 148.51 43.608C149.282 41.9341 150.378 40.6442 151.798 39.7384C153.229 38.8212 154.864 38.3625 156.704 38.3625C158.555 38.3625 160.191 38.8212 161.61 39.7384C163.041 40.6442 164.143 41.9398 164.915 43.6252C165.688 45.2992 166.074 47.2082 166.074 49.3522V53.1015ZM165.154 49.3178C165.154 46.2909 164.393 43.866 162.871 42.043C161.349 40.2085 159.293 39.2913 156.704 39.2913C154.149 39.2913 152.11 40.2028 150.588 42.0258C149.066 43.8373 148.305 46.3081 148.305 49.4382V53.1015C148.305 55.0965 148.646 56.8621 149.328 58.3985C150.02 59.9234 151.003 61.0987 152.275 61.9242C153.547 62.7497 155.035 63.1624 156.738 63.1624C159.328 63.1624 161.377 62.2509 162.888 60.4279C164.398 58.6049 165.154 56.1169 165.154 52.9639V49.3178Z" fill="white"/>
<path d="M178.373 50.2465L186.38 38.7065H187.539L178.953 50.9689L187.862 63.7472H186.721L178.373 51.6912L169.992 63.7472H168.885L177.794 50.9689L169.208 38.7065H170.367L178.373 50.2465Z" fill="white"/>
</g>
<defs>
<filter id="filter0_d_517_525" x="0" y="38.3625" width="191.862" height="33.7458" filterUnits="userSpaceOnUse" color-interpolation-filters="sRGB">
<feFlood flood-opacity="0" result="BackgroundImageFix"/>
<feColorMatrix in="SourceAlpha" type="matrix" values="0 0 0 0 0 0 0 0 0 0 0 0 0 0 0 0 0 0 127 0" result="hardAlpha"/>
<feOffset dy="4"/>
<feGaussianBlur stdDeviation="2"/>
<feComposite in2="hardAlpha" operator="out"/>
<feColorMatrix type="matrix" values="0 0 0 0 0 0 0 0 0 0 0 0 0 0 0 0 0 0 0.25 0"/>
<feBlend mode="normal" in2="BackgroundImageFix" result="effect1_dropShadow_517_525"/>
<feBlend mode="normal" in="SourceGraphic" in2="effect1_dropShadow_517_525" result="shape"/>
</filter>
</defs>
</svg>
